<svg width="42" height="42" viewBox="0 0 42 42" fill="none" xmlns="http://www.w3.org/2000/svg">
<rect width="41.7193" height="41.7194" rx="10.8833" fill="#22CEFF"/>
<path d="M3.62769 26.4131C3.62769 25.1856 5.35046 24.5018 6.21185 24.3134L9.44205 26.5746C9.05443 27.3498 7.6116 27.759 6.93864 27.8666C5.00052 28.0605 3.92379 26.9783 3.62769 26.4131Z" fill="white"/>
<path d="M8.2307 25.2018C8.03689 27.1399 5.2966 27.1937 3.95068 26.9784L5.88881 27.8667C8.08534 28.1251 9.38819 26.7361 9.76505 26.0093L8.2307 25.2018Z" fill="#D0D9DD"/>
<path d="M9.44263 26.5454C8.81649 27.3276 6.96546 28.5829 4.57048 27.3467C3.90521 27.0033 2.83295 26.1563 4.57048 25.0574C4.76615 24.9239 5.39229 24.5881 6.3315 24.3134" stroke="#9FB0C0" stroke-width="0.453471" stroke-linecap="round"/>
<path d="M31.2644 18.7982C31.2724 18.8011 31.2811 18.8033 31.2898 18.8055C31.4723 18.8445 31.6325 18.6393 31.6216 18.4529C31.6042 18.1473 31.3434 17.8431 31.2883 17.5187C31.2282 17.1646 31.2282 16.8012 31.2854 16.4472C31.389 15.8056 31.6745 15.1944 32.0991 14.7016C32.1918 14.594 32.9932 13.7284 33.083 14.0723C33.1562 14.3548 33.2214 14.6359 33.3961 14.8765C33.5989 15.1553 33.8504 15.3945 34.0677 15.6611C35.0865 16.9089 34.8184 18.9904 33.5171 19.9412C34.8227 19.3986 36.4718 18.9622 37.529 19.8993C37.9195 20.2454 38.1572 20.7208 38.4202 21.1616C38.5702 21.4123 38.7499 21.642 38.9578 21.8472C39.0868 21.9751 39.436 22.1391 39.2846 22.3653C39.2462 22.4223 39.1882 22.4628 39.1303 22.4989C38.71 22.7619 38.239 22.8392 37.7637 22.9476C37.2094 23.074 36.6211 23.0928 36.0704 23.0083C35.527 22.9252 34.9966 22.7518 34.5133 22.4895C34.125 22.2793 33.762 22.0156 33.4634 21.6883C33.3765 21.5929 33.2881 21.4946 33.1599 21.5936C32.9577 21.7497 32.7816 21.9375 32.6048 22.1211C32.3867 22.3472 32.1868 22.59 32.0056 22.8465C30.9427 24.3514 30.171 26.0674 28.877 27.4019C27.7249 28.5904 26.3432 29.5463 24.844 30.2478C21.9074 31.622 18.5128 32.0317 15.3443 31.5476C12.2881 31.0802 9.22972 29.9292 7.27558 27.4315C5.59894 25.2878 4.85844 22.4577 5.14029 19.7939C5.40186 17.3193 6.13874 14.8454 7.62337 12.8455C9.53839 10.2661 12.6185 8.65277 15.8124 8.25756C16.179 8.21204 16.5478 8.18314 16.9166 8.17014C18.5932 8.11161 20.2764 8.38472 21.8589 8.93672C23.4413 9.48871 24.9317 10.3232 26.2258 11.3904C27.3402 12.3094 28.285 13.4184 29.0197 14.659C29.7544 15.8995 30.3297 17.2586 31.0231 18.5389C31.0811 18.6451 31.1521 18.7614 31.2644 18.799V18.7982Z" fill="white"/>
<path d="M18.1191 21.7617C19.344 21.7617 20.337 21.2418 20.337 20.6003C20.337 19.9589 19.344 19.4389 18.1191 19.4389C16.8941 19.4389 15.9011 19.9589 15.9011 20.6003C15.9011 21.2418 16.8941 21.7617 18.1191 21.7617Z" fill="#F9B9B6"/>
<path d="M7.74664 21.7292C8.68323 21.7292 9.4425 21.2953 9.4425 20.7601C9.4425 20.2249 8.68323 19.7911 7.74664 19.7911C6.81004 19.7911 6.05078 20.2249 6.05078 20.7601C6.05078 21.2953 6.81004 21.7292 7.74664 21.7292Z" fill="#F9B9B6"/>
<path d="M18.0631 19.1389C17.7197 19.6745 17.0118 19.8293 16.4762 19.487C16.3485 19.405 16.2418 19.303 16.1621 19.1846L16.7845 18.6338L15.9746 18.2646C16.0039 18.138 16.052 18.015 16.127 17.899C16.4704 17.3633 17.183 17.2075 17.7186 17.5497C18.2542 17.8931 18.4077 18.6045 18.0643 19.1401L18.0631 19.1389Z" fill="#333333"/>
<path d="M8.27638 19.1175C8.04745 19.6466 7.57552 19.7994 7.21845 19.4613C7.13328 19.3803 7.06218 19.2796 7.00905 19.1626L7.42394 18.6185L6.88403 18.2537C6.90357 18.1287 6.9356 18.0071 6.98561 17.8925C7.21454 17.3634 7.68959 17.2094 8.04667 17.5475C8.40374 17.8867 8.50609 18.5895 8.27716 19.1186L8.27638 19.1175Z" fill="#333333"/>
<path d="M10.0308 18.7512L10.0309 18.7511C10.0617 18.7226 10.67 18.1645 11.9264 18.1479L10.0308 18.7512ZM10.0308 18.7512C9.98512 18.7941 9.9823 18.8661 10.0251 18.913C10.0324 18.9217 10.0405 18.9278 10.0471 18.9321C10.0909 18.9613 10.1496 18.9564 10.1889 18.9198L10.1889 18.9198C10.2201 18.892 10.7919 18.394 11.9294 18.379L11.9294 18.379C12.5264 18.3708 13.1011 18.5029 13.5354 18.6457C13.7524 18.7171 13.9338 18.7909 14.0648 18.8508C14.1304 18.8808 14.183 18.9072 14.221 18.9279C14.2401 18.9382 14.2551 18.947 14.2661 18.954C14.2716 18.9575 14.2759 18.9603 14.279 18.9626C14.2795 18.9629 14.28 18.9633 14.2804 18.9636C14.3145 19.0131 14.3805 19.0287 14.4334 18.9989L14.4334 18.9989L14.4341 18.9985C14.4892 18.966 14.5078 18.8963 14.4766 18.8409L14.4763 18.8405M10.0308 18.7512L14.4763 18.8405M14.4763 18.8405C14.4679 18.8259 14.4539 18.8126 14.4402 18.8014M14.4763 18.8405L14.4402 18.8014M14.4402 18.8014C14.4255 18.7894 14.4069 18.7763 14.385 18.7624M14.4402 18.8014L14.385 18.7624M14.385 18.7624C14.3413 18.7346 14.2822 18.702 14.2102 18.6668M14.385 18.7624L14.2102 18.6668M14.2102 18.6668C14.0662 18.5964 13.8684 18.5139 13.6342 18.4358M14.2102 18.6668L13.6342 18.4358M13.6342 18.4358C13.1663 18.2796 12.5502 18.1396 11.9264 18.1479L13.6342 18.4358Z" fill="#333333" stroke="#333333" stroke-width="0.0906943"/>
<path d="M10.0548 20.2519C10.0548 20.2519 9.61189 22.8451 11.7622 22.9266C13.9126 23.0081 14.7984 20.8586 14.6866 20.3446L13.1845 19.5429L11.9668 19.3721L11.1061 19.5507L10.0548 20.2519Z" fill="#333333"/>
<path d="M10.3813 22.2192C10.3813 22.2192 11.0011 20.9867 12.1365 20.9624C13.2719 20.9382 14.253 21.336 14.3822 21.4045C14.5104 21.4721 13.6342 22.3882 13.6342 22.3882L12.9928 22.7028L12.1009 22.9212L11.4292 22.8909L10.6058 22.5511L10.3813 22.2201V22.2192Z" fill="#F58880"/>
<path d="M10.7196 22.8172C10.5706 22.7219 10.4388 22.604 10.3253 22.4636C9.64056 21.6194 9.86071 20.2768 9.87025 20.2205C9.88758 20.1182 9.98466 20.0497 10.0861 20.0671C10.1875 20.0844 10.2568 20.1815 10.2395 20.2829C10.2377 20.295 10.0393 21.5171 10.6174 22.2278C10.8783 22.5485 11.2657 22.7201 11.7701 22.7392C12.8284 22.7791 13.5062 22.2443 13.8893 21.7884C14.3694 21.2164 14.5445 20.5698 14.5046 20.3834C14.483 20.282 14.5471 20.1823 14.6485 20.1607C14.7499 20.139 14.8496 20.2032 14.8713 20.3046C14.9458 20.6469 14.7014 21.4036 14.177 22.0294C13.7411 22.5494 12.9671 23.1596 11.7571 23.1136C11.3524 23.098 11.0057 22.9992 10.7214 22.8172H10.7196Z" fill="#333333"/>
<path d="M7.50021 20.7849C7.35373 20.6912 7.30346 20.5812 7.29306 20.5552C7.25579 20.459 7.30259 20.3498 7.39967 20.3125C7.49241 20.2761 7.59815 20.3194 7.63888 20.4096C7.65449 20.4321 8.05925 20.9591 10.2148 19.8236C10.3058 19.75 10.7253 19.4319 11.3797 19.2724C12.0479 19.1095 13.1001 19.0861 14.3032 19.8999C14.337 19.9233 14.3716 19.945 14.4054 19.9667C16.4145 21.2538 17.7458 20.0317 17.803 19.9779C17.8775 19.9069 17.9963 19.9103 18.0674 19.9849C18.1384 20.0594 18.1358 20.1781 18.0613 20.2492C18.0448 20.2648 16.4162 21.7825 14.0934 20.2102C12.0185 18.8174 10.5052 20.0681 10.4419 20.1227C10.4315 20.1313 10.4193 20.14 10.4072 20.1461C9.12619 20.823 8.19966 21.0631 7.65275 20.8594C7.59295 20.8369 7.54268 20.8117 7.50107 20.7849H7.50021Z" fill="#333333"/>
<path d="M10.2786 22.3768C10.1989 22.3257 10.1685 22.2217 10.2128 22.135C10.2405 22.0804 10.8975 20.802 12.1308 20.7751C13.2914 20.75 14.315 21.1573 14.4684 21.2388C14.5594 21.2856 14.5949 21.4009 14.5464 21.4919C14.4979 21.5829 14.3843 21.6184 14.2933 21.5699C14.1616 21.5006 13.2056 21.127 12.1395 21.1495C11.1332 21.1712 10.5534 22.2919 10.5473 22.304C10.5005 22.3959 10.3878 22.4332 10.296 22.3864C10.2899 22.3838 10.2847 22.3803 10.2795 22.3768H10.2786Z" fill="#333333"/>
<path d="M17.2279 18.4647C17.4371 18.4647 17.6067 18.2951 17.6067 18.0859C17.6067 17.8767 17.4371 17.7072 17.2279 17.7072C17.0187 17.7072 16.8491 17.8767 16.8491 18.0859C16.8491 18.2951 17.0187 18.4647 17.2279 18.4647Z" fill="white"/>
<path d="M7.83099 18.5048C7.93559 18.5048 8.02039 18.3352 8.02039 18.126C8.02039 17.9168 7.93559 17.7472 7.83099 17.7472C7.7264 17.7472 7.6416 17.9168 7.6416 18.126C7.6416 18.3352 7.7264 18.5048 7.83099 18.5048Z" fill="white"/>
<mask id="mask0_5_2856" style="mask-type:alpha" maskUnits="userSpaceOnUse" x="5" y="8" width="35" height="24">
<path d="M29.3587 15.2499C28.6102 13.7196 27.5386 12.4719 26.2257 11.3903C24.9309 10.3232 23.4433 9.49016 21.8587 8.93673C20.2741 8.3833 18.5938 8.11164 16.9172 8.17017C16.5476 8.18317 16.1796 8.21207 15.8129 8.25759C12.6183 8.65279 9.53819 10.2661 7.62316 12.8454C6.1378 14.8453 5.40091 17.3191 5.14007 19.7937C4.85894 22.4575 5.59872 25.2875 7.27537 27.4312C9.22952 29.9288 12.2879 31.0805 15.3441 31.5472C18.5127 32.032 21.9073 31.6223 24.8439 30.2474C26.3431 29.5459 27.7248 28.59 28.8769 27.4015C30.1709 26.0664 30.9426 24.3512 32.0055 22.8462C32.1867 22.5897 32.3867 22.3462 32.6048 22.1208C32.7815 21.938 32.9576 21.7495 33.1598 21.5934C33.288 21.4944 33.3764 21.5934 33.4634 21.688C33.7619 22.0146 34.1249 22.2783 34.5133 22.4893C34.9965 22.7508 35.5269 22.9242 36.0704 23.008C36.621 23.0926 37.2094 23.0738 37.7637 22.9473C38.239 22.839 38.7099 22.7624 39.1302 22.4987C39.1882 22.4626 39.2461 22.4221 39.2845 22.365C39.436 22.1389 39.0874 21.9741 38.9577 21.847C38.7498 21.6418 38.5701 21.412 38.4201 21.1613C38.1571 20.7206 37.9194 20.2452 37.5289 19.8991C36.4718 18.9628 34.8226 19.3992 33.517 19.941C34.8183 18.9895 35.0857 16.9087 34.0677 15.661C33.8503 15.3944 33.5989 15.1552 33.396 14.8764C33.2214 14.6358 33.1561 14.3547 33.083 14.0722C32.9938 13.7283 32.1917 14.5939 32.099 14.7015C31.6737 15.1943 31.3889 15.8055 31.2853 16.4471C31.2281 16.8011 31.2281 17.1645 31.2882 17.5185C31.3324 17.7786 31.4085 18.0134 31.5382 18.2417C31.602 18.3545 31.5867 18.4591 31.5382 18.5798C31.4809 18.7207 31.4714 18.6439 31.3272 18.6605C31.2069 18.6743 31.2464 18.6605 31.1657 18.5798" fill="white"/>
</mask>
<g mask="url(#mask0_5_2856)">
<path d="M24.9478 26.413C15.3379 33.4387 4.43598 28.0281 4.43598 22.779L2.57861 26.413L4.43598 31.8236L19.7795 36.1844L35.2844 33.681L41.0988 26.413L38.8377 13.1692L30.1969 5.73969L19.7795 6.87026C32.7003 14.5582 28.6087 23.1021 24.9478 26.413Z" fill="#D0D9DD"/>
<path d="M37.1417 22.2135C35.6558 22.6011 33.9384 21.9443 33.2655 21.5674L33.0232 22.7788C33.5346 23.2095 34.5898 24.0709 34.7191 24.0709H39.0798L40.2104 22.375L38.5145 20.6791C38.6437 21.5836 37.6532 22.0789 37.1417 22.2135Z" fill="#B6BFC6"/>
<path d="M33.5076 16.157C34.6058 17.3845 33.9652 19.2257 33.5076 19.9525L34.3151 19.3872L36.011 17.2068L35.1227 13.8958C34.9073 13.0075 34.1536 11.5539 32.8615 12.846C31.5694 14.1381 32.7538 15.5917 33.5076 16.157Z" fill="#B6BFC6"/>
</g>
<path d="M25.2704 26.8167C22.6216 27.7211 20.5058 26.1168 19.7791 25.2016L24.0591 22.0521C25.2219 22.2459 26.6432 23.2096 27.2085 23.6672C28.9528 25.0239 26.6432 26.3322 25.2704 26.8167Z" fill="white"/>
<path d="M26.9662 23.6672C26.1263 26.3806 21.9863 25.9822 20.0212 25.4438C22.9284 28.2218 26.024 26.8705 27.2084 25.8476C28.3067 24.8139 27.5045 23.9633 26.9662 23.6672Z" fill="#D0D9DD"/>
<path d="M19.7791 25.2016C20.6404 26.3052 23.1869 28.0765 26.4817 26.3322C27.397 25.8476 28.8721 24.6524 26.4817 23.1019C26.2125 22.9135 25.3512 22.4397 24.0591 22.0521" stroke="#9FB0C0" stroke-width="0.453471" stroke-linecap="round"/>
<path d="M8.26981 13.4538C8.26981 13.4538 8.27077 13.4507 8.27145 13.4492C8.40107 13.1601 8.86406 12.3313 9.48998 11.7713C9.98028 11.4037 11.2121 10.4963 11.8584 10.653C11.9531 10.6759 12.0584 10.7424 12.0383 10.855C12.0261 10.9237 11.9767 10.9789 11.9261 11.027C11.6664 11.2709 10.8812 11.8868 10.575 12.0593C9.8368 12.6253 9.23619 13.2684 8.63373 13.9405C8.55937 14.0235 8.47552 14.1116 8.36492 14.1254C8.00562 14.1698 8.21057 13.6169 8.26981 13.4538Z" fill="#ECEEF9"/>
<ellipse cx="0.731845" cy="0.394071" rx="0.731845" ry="0.394071" transform="matrix(0.896293 -0.443462 0.443461 0.896294 12.2439 10.0131)" fill="#ECEEF9"/>
</svg>
